<svg xmlns="http://www.w3.org/2000/svg" viewBox="0 0 133.54 133.54"><defs><style>.cls-1{fill:#fff;}</style></defs><g id="Layer_1" data-name="Layer 1"><g id="LOGO"><g id="With_border_2_1mm_full" data-name="With border 2+1mm full"><path class="cls-1" d="M68.54,9.72l4.95,8.58a6.85,6.85,0,0,1,0,6.84L49.08,67.31a15,15,0,0,0,13,22.57l1-.07a15.78,15.78,0,0,0,2.05-.28h0a1.64,1.64,0,0,1,1.74.74A8.08,8.08,0,0,1,68,93.05c1,5.31-3,9.73-8.41,9.73H15a2.28,2.28,0,0,1-2-3.42L64.59,9.73A2.28,2.28,0,0,1,68.54,9.72Z"/></g><g id="With_border_2_1mm_full-2" data-name="With border 2+1mm full"><path class="cls-1" d="M.31,121.54l5-8.57a6.83,6.83,0,0,1,5.92-3.42l48.73,0A15,15,0,0,0,73,87l-.58-.86a15.18,15.18,0,0,0-1.27-1.63h0a1.67,1.67,0,0,1-.23-1.88,8.11,8.11,0,0,1,1.87-2.33c4.1-3.53,9.93-2.26,12.63,2.42l22.3,38.63a2.28,2.28,0,0,1-2,3.42L2.28,125A2.28,2.28,0,0,1,.31,121.54Z"/></g><g id="With_border_2_1mm_full-3" data-name="With border 2+1mm full"><path class="cls-1" d="M131.26,124.72h-9.9a6.83,6.83,0,0,1-5.92-3.42L91.11,79.08a15,15,0,0,0-26,0l-.45.93a13.19,13.19,0,0,0-.78,1.91h0a1.65,1.65,0,0,1-1.52,1.14,8.25,8.25,0,0,1-3-.45c-5.1-1.79-6.92-7.47-4.22-12.15L77.45,31.82a2.27,2.27,0,0,1,3.94,0l51.84,89.48A2.28,2.28,0,0,1,131.26,124.72Z"/></g></g></g></svg>
