<svg xmlns="http://www.w3.org/2000/svg" viewBox="0 0 404.59 133.54"><defs><style>.cls-1{fill:#fff;}</style></defs><g id="Layer_1" data-name="Layer 1"><g id="icon"><g id="With_border_2_1mm_full" data-name="With border 2+1mm full"><path class="cls-1" d="M69.83,36.49l2.42,4.19a3.34,3.34,0,0,1,0,3.35L60.31,64.66a7.36,7.36,0,0,0,6.37,11l.5,0a6.69,6.69,0,0,0,1-.14h0a.82.82,0,0,1,.86.37A4,4,0,0,1,65.45,82H43.63a1.11,1.11,0,0,1-1-1.67L67.89,36.49A1.12,1.12,0,0,1,69.83,36.49Z"/></g><g id="With_border_2_1mm_full-2" data-name="With border 2+1mm full"><path class="cls-1" d="M36.44,91.2,38.87,87a3.34,3.34,0,0,1,2.9-1.67l23.83,0a7.36,7.36,0,0,0,6.38-11l-.28-.42a7.68,7.68,0,0,0-.62-.79h0a.8.8,0,0,1-.11-.92A3.67,3.67,0,0,1,71.88,71a4,4,0,0,1,6.18,1.18L89,91.12a1.11,1.11,0,0,1-1,1.67l-50.6.08A1.11,1.11,0,0,1,36.44,91.2Z"/></g><g id="With_border_2_1mm_full-3" data-name="With border 2+1mm full"><path class="cls-1" d="M100.51,92.75H95.67a3.36,3.36,0,0,1-2.9-1.67L80.87,70.42a7.36,7.36,0,0,0-12.75,0l-.22.45a7.55,7.55,0,0,0-.38.93h0a.79.79,0,0,1-.74.56,3.8,3.8,0,0,1-1.44-.22,4,4,0,0,1-2.07-5.94L74.18,47.3a1.12,1.12,0,0,1,1.93,0l25.37,43.78A1.11,1.11,0,0,1,100.51,92.75Z"/></g></g><g id="reviewpad_outlines" data-name="reviewpad outlines"><path class="cls-1" d="M133.91,62a5.82,5.82,0,0,0-2.37-.6,4.71,4.71,0,0,0-3.62,1.54,5.37,5.37,0,0,0-1.54,3.79V84.19h-4.73V66.7a10.21,10.21,0,0,1,1.51-5.44,10.41,10.41,0,0,1,4.15-3.85,9.83,9.83,0,0,1,4.23-.93,9.27,9.27,0,0,1,3.47.66,13.2,13.2,0,0,1,3.46,2.14Z"/><path class="cls-1" d="M142.1,72.53a5,5,0,0,0,1,2.75,10.57,10.57,0,0,0,2.23,2.42,8.47,8.47,0,0,0,5.39,1.81q4.89,0,8-4.73l4.18,2.48a15.57,15.57,0,0,1-5.28,5.33,13.13,13.13,0,0,1-6.87,1.87,13.81,13.81,0,0,1-9.79-4.07,13.78,13.78,0,0,1-3-4.45,13.44,13.44,0,0,1-1.08-5.33,13.62,13.62,0,0,1,1.08-5.36,13.85,13.85,0,0,1,3-4.49,13,13,0,0,1,4.43-3,14.33,14.33,0,0,1,10.72,0,13.08,13.08,0,0,1,4.43,3,13.48,13.48,0,0,1,4.06,9.68,14,14,0,0,1-.16,2.09Zm4.34-10.28a8.67,8.67,0,0,0-3.16,2.61,5.73,5.73,0,0,0-1.18,3.44h17.16a5.74,5.74,0,0,0-1.19-3.44,8.5,8.5,0,0,0-3.16-2.61,9.55,9.55,0,0,0-8.47,0Z"/><path class="cls-1" d="M179.49,84.19h-4.67L164,56.7h5.22l8,20.06L185.1,56.7h5.22Z"/><path class="cls-1" d="M194.36,52a2.51,2.51,0,1,1,1.79.75A2.44,2.44,0,0,1,194.36,52Zm-.46,32.2V56.7h4.61V84.19Z"/><path class="cls-1" d="M206.16,72.53a5,5,0,0,0,1,2.75,10.53,10.53,0,0,0,2.22,2.42,8.47,8.47,0,0,0,5.39,1.81c3.27,0,5.92-1.57,8-4.73l4.17,2.48a15.46,15.46,0,0,1-5.27,5.33,13.14,13.14,0,0,1-6.88,1.87,13.86,13.86,0,0,1-13.85-13.85A13.95,13.95,0,0,1,205,60.76a13,13,0,0,1,4.42-3,14.33,14.33,0,0,1,10.72,0,13,13,0,0,1,4.43,3,13.49,13.49,0,0,1,4.07,9.68,14.11,14.11,0,0,1-.17,2.09Zm4.34-10.28a8.59,8.59,0,0,0-3.16,2.61,5.73,5.73,0,0,0-1.18,3.44h17.15a5.73,5.73,0,0,0-1.18-3.44A8.59,8.59,0,0,0,219,62.25a9.55,9.55,0,0,0-8.47,0Z"/><path class="cls-1" d="M259.82,84.19H255l-5-12.43-5,12.43h-4.78L229.14,56.7h5.39l8.08,20.06,4.73-11.6-3.41-8.46h5.39l8.08,20.06,8.08-20.06h5.34Z"/><path class="cls-1" d="M282.25,83.66a10.79,10.79,0,0,1-3.79-3.21V95.9h-4.89V57.35h4.89V61.2a13.17,13.17,0,0,1,4.07-3.35,10.35,10.35,0,0,1,5-1.26,13.64,13.64,0,0,1,5.36,1.07,12.74,12.74,0,0,1,4.42,3.05,14.25,14.25,0,0,1,3,4.54,13.92,13.92,0,0,1,1.07,5.41,13.75,13.75,0,0,1-1.07,5.39,14.35,14.35,0,0,1-3,4.51,13.72,13.72,0,0,1-9.78,4.12A11.92,11.92,0,0,1,282.25,83.66ZM284,62.28a8.32,8.32,0,0,0-2.86,2,9.65,9.65,0,0,0-1.92,2.94,8.76,8.76,0,0,0-.72,3.49,8.6,8.6,0,0,0,.72,3.47A9.88,9.88,0,0,0,281.15,77,8.83,8.83,0,0,0,284,79a8.81,8.81,0,0,0,6.93,0,8.83,8.83,0,0,0,2.86-2,9.45,9.45,0,0,0,1.9-2.91,9.09,9.09,0,0,0,.68-3.47,9.31,9.31,0,0,0-2.58-6.43,8.32,8.32,0,0,0-2.86-2,9,9,0,0,0-6.93,0Z"/><path class="cls-1" d="M326.35,84.19V80a13.78,13.78,0,0,1-4.07,3.24,10.35,10.35,0,0,1-4.89,1.21,13.84,13.84,0,0,1-5.36-1,13.7,13.7,0,0,1-4.43-3,13.36,13.36,0,0,1-3-4.43,14,14,0,0,1,0-10.72,14,14,0,0,1,3-4.48,13.62,13.62,0,0,1,9.79-4,11.56,11.56,0,0,1,9,4.17V57.35h4.95V84.19Zm-12.46-21.8a8.51,8.51,0,0,0-4.78,4.78,9.09,9.09,0,0,0-.69,3.49,8.92,8.92,0,0,0,.69,3.47,8.66,8.66,0,0,0,4.78,4.75,9.14,9.14,0,0,0,3.5.69,8.87,8.87,0,0,0,3.46-.69,8.71,8.71,0,0,0,4.76-4.75,9.09,9.09,0,0,0,.68-3.47,9.27,9.27,0,0,0-.68-3.49,8.56,8.56,0,0,0-4.76-4.78,8.87,8.87,0,0,0-3.46-.69A9.14,9.14,0,0,0,313.89,62.39Z"/><path class="cls-1" d="M357.08,84.19V80a12.85,12.85,0,0,1-4.15,3.3,10.82,10.82,0,0,1-5,1.21,13.91,13.91,0,0,1-5.45-1.07,12.81,12.81,0,0,1-4.39-3,14.25,14.25,0,0,1-3-4.54,14.24,14.24,0,0,1,0-10.83,14.37,14.37,0,0,1,3-4.54,13,13,0,0,1,4.39-3A13.91,13.91,0,0,1,348,56.31a11.57,11.57,0,0,1,5.19,1.16,11.16,11.16,0,0,1,3.93,3.18v-13h4.84V84.19ZM344.49,62a8.46,8.46,0,0,0-2.86,2,10.1,10.1,0,0,0-1.92,2.94,8.8,8.8,0,0,0-.71,3.5,9,9,0,0,0,2.63,6.43,8.83,8.83,0,0,0,2.86,2,8.59,8.59,0,0,0,3.47.71,8.89,8.89,0,0,0,6.38-2.69A9,9,0,0,0,357,70.39a8.8,8.8,0,0,0-.71-3.5A10.1,10.1,0,0,0,354.34,64a8.39,8.39,0,0,0-2.89-2,9.09,9.09,0,0,0-3.49-.69A8.92,8.92,0,0,0,344.49,62Z"/></g></g></svg>
